<?xml version="1.0" standalone="no"?>
<!DOCTYPE svg PUBLIC "-//W3C//DTD SVG 20010904//EN"
 "http://www.w3.org/TR/2001/REC-SVG-20010904/DTD/svg10.dtd">
<svg version="1.0" xmlns="http://www.w3.org/2000/svg"
 width="297.000000pt" height="126.000000pt" viewBox="0 0 297.000000 126.000000"
 preserveAspectRatio="xMidYMid meet">

<g transform="translate(0.000000,126.000000) scale(0.100000,-0.100000)"
fill="#000000" stroke="none">
<path d="M1037 1209 c-65 -34 -77 -66 -77 -206 0 -67 4 -124 9 -127 16 -10 21
23 21 138 0 166 21 186 195 186 81 0 106 3 103 13 -3 8 -36 13 -109 14 -88 2
-110 -1 -142 -18z"/>
<path d="M1877 1173 c-4 -3 -7 -48 -7 -100 0 -76 3 -93 15 -93 11 0 15 11 15
40 0 37 2 39 35 46 44 8 45 22 3 26 -25 2 -34 8 -36 26 -3 23 1 25 52 37 23 5
27 8 15 16 -16 10 -83 12 -92 2z"/>
<path d="M2062 1168 c-12 -16 -62 -154 -62 -174 0 -21 18 -17 25 6 5 16 15 20
50 20 35 0 46 -5 60 -26 30 -47 35 -7 8 75 -33 98 -57 128 -81 99z m38 -54
c18 -47 13 -64 -20 -64 -23 0 -30 5 -30 19 0 29 18 71 30 71 6 0 15 -12 20
-26z"/>
<path d="M2247 1169 c-9 -6 -14 -15 -11 -21 4 -7 2 -8 -4 -4 -21 13 -36 -40
-26 -92 8 -40 14 -50 46 -67 29 -15 43 -17 64 -10 38 14 27 28 -21 29 -33 1
-42 6 -53 29 -16 33 -9 89 14 108 8 7 33 12 56 11 35 -2 39 0 28 13 -14 17
-66 19 -93 4z"/>
<path d="M2395 1158 c-2 -13 -4 -57 -2 -98 l2 -75 35 -5 c19 -3 43 -4 53 -2
30 7 18 22 -17 22 -26 0 -36 5 -41 20 -9 27 0 37 35 45 34 8 31 25 -5 25 -15
0 -26 7 -30 20 -8 25 1 40 25 40 10 0 26 3 35 6 25 10 -2 24 -47 24 -31 0 -39
-4 -43 -22z"/>
<path d="M1388 1143 c-14 -2 -32 -11 -40 -20 -11 -15 -10 -16 12 -9 14 4 59
10 101 13 131 10 233 -26 303 -109 43 -50 55 -85 65 -201 8 -83 10 -90 45
-125 40 -42 46 -76 16 -94 -20 -13 -27 -28 -12 -28 4 0 20 11 35 25 26 25 26
27 12 54 -8 16 -27 43 -42 62 -24 28 -29 45 -34 116 -16 202 -150 323 -354
321 -44 -1 -92 -3 -107 -5z"/>
<path d="M2618 1110 c25 -11 24 -15 -25 -92 -23 -38 -23 -38 -2 -38 14 0 19 5
16 14 -9 23 16 48 44 44 18 -2 25 -10 27 -30 3 -25 8 -28 38 -28 34 0 35 0 16
20 -10 11 -29 43 -42 70 -22 47 -26 50 -59 49 -32 0 -34 -1 -13 -9z m42 -51
c0 -5 -7 -9 -15 -9 -15 0 -20 12 -9 23 8 8 24 -1 24 -14z"/>
<path d="M2828 1108 c16 -16 16 -100 0 -116 -9 -9 -4 -12 25 -12 34 0 37 2 27
19 -5 11 -10 34 -10 51 0 17 5 40 10 51 10 17 7 19 -27 19 -29 0 -34 -3 -25
-12z"/>
<path d="M1223 1071 c-51 -37 -99 -98 -120 -153 -25 -67 -22 -197 7 -285 13
-40 28 -73 32 -73 12 0 10 10 -13 70 -30 82 -36 194 -13 266 19 63 84 143 136
170 15 8 28 19 28 24 0 16 -15 11 -57 -19z"/>
<path d="M1410 1060 c-51 -11 -120 -39 -120 -50 0 -4 -9 -10 -20 -13 -11 -3
-20 -13 -20 -23 0 -16 3 -15 23 4 40 38 143 72 216 72 103 0 200 -55 231 -129
16 -40 32 -41 19 -1 -15 41 -98 114 -148 129 -59 17 -129 21 -181 11z"/>
<path d="M1361 962 c-55 -21 -133 -90 -156 -138 -25 -53 -12 -51 23 4 56 86
139 132 237 132 37 0 75 -5 87 -11 11 -6 22 -8 25 -6 3 3 -9 13 -26 21 -39 21
-133 19 -190 -2z"/>
<path d="M1375 869 c-74 -39 -103 -76 -131 -168 -17 -58 -18 -102 -1 -125 11
-15 13 -8 9 46 -3 52 1 71 22 112 14 27 22 54 19 60 -3 6 -3 8 2 4 4 -4 26 8
48 27 22 19 55 38 74 41 18 3 36 10 39 15 10 17 -41 9 -81 -12z"/>
<path d="M1650 886 c0 -3 15 -34 33 -68 30 -57 32 -69 32 -157 0 -115 -21
-166 -97 -237 -50 -46 -55 -54 -38 -54 23 0 100 84 126 138 26 51 29 67 29
157 0 92 -3 104 -29 153 -27 48 -56 84 -56 68z"/>
<path d="M1425 797 c-28 -15 -47 -37 -64 -70 -13 -26 -21 -50 -18 -53 3 -3 15
12 26 34 34 66 112 112 167 98 17 -5 23 -3 19 4 -11 18 -88 11 -130 -13z"/>
<path d="M1625 733 c17 -45 17 -110 0 -144 -21 -42 -64 -89 -82 -89 -7 0 -13
-4 -13 -10 0 -33 79 20 105 71 9 16 15 55 15 93 0 69 -6 96 -22 96 -6 0 -7 -8
-3 -17z"/>
<path d="M1449 700 c-27 -26 -30 -35 -27 -80 2 -28 7 -50 13 -50 5 0 8 19 6
43 -3 54 27 97 69 97 33 0 40 -14 40 -78 0 -34 3 -43 10 -32 15 23 12 83 -6
108 -22 32 -68 29 -105 -8z"/>
<path d="M1340 573 c0 -61 86 -169 126 -161 12 2 5 11 -22 28 -41 27 -84 91
-84 128 0 12 -4 22 -10 22 -5 0 -10 -8 -10 -17z"/>
<path d="M84 549 c-2 -4 5 -9 16 -12 19 -5 20 -14 20 -121 0 -94 -3 -118 -15
-122 -30 -12 -14 -24 30 -24 46 0 61 14 25 23 -18 5 -20 14 -20 101 0 53 2 96
4 96 3 0 44 -49 92 -110 48 -60 90 -110 93 -110 3 0 5 58 3 130 -3 111 -1 131
12 136 29 11 17 20 -24 18 -39 -2 -71 -14 -38 -14 9 0 19 -7 22 -16 9 -23 7
-164 -1 -163 -5 0 -42 44 -84 97 -63 81 -80 97 -103 97 -15 0 -30 -3 -32 -6z"/>
<path d="M1793 523 c-15 -62 -47 -116 -95 -163 -30 -30 -45 -50 -36 -50 20 0
91 77 116 127 21 40 39 113 28 113 -3 0 -9 -12 -13 -27z"/>
<path d="M1876 430 c2 -115 -3 -124 -82 -133 -28 -3 -67 -15 -87 -27 -37 -22
-93 -97 -104 -138 -10 -43 3 -32 33 24 39 76 81 111 141 119 63 9 100 23 109
43 13 31 14 190 1 201 -10 8 -12 -12 -11 -89z"/>
<path d="M1213 418 c54 -106 57 -173 15 -256 -33 -64 -34 -68 -9 -45 36 33 63
122 56 179 -6 54 -71 194 -93 202 -6 2 7 -34 31 -80z"/>
<path d="M712 438 c-18 -18 -15 -68 3 -68 10 0 15 10 15 30 0 27 3 30 30 30
17 0 30 5 30 10 0 14 -64 12 -78 -2z"/>
<path d="M1060 441 c0 -6 16 -11 35 -11 32 0 35 -2 35 -30 0 -16 5 -30 11 -30
6 0 9 16 7 38 -3 36 -4 37 -45 40 -26 2 -43 -1 -43 -7z"/>
<path d="M871 426 c-53 -29 -67 -106 -28 -152 18 -20 35 -28 74 -31 45 -5 54
-2 84 25 28 25 34 37 34 72 0 35 -6 47 -33 71 -36 32 -89 38 -131 15z m117
-38 c43 -41 19 -108 -45 -124 -33 -9 -72 12 -93 49 -13 24 -13 30 0 54 31 55
91 64 138 21z"/>
<path d="M1314 425 c54 -135 56 -181 10 -268 -27 -52 -28 -69 -2 -40 25 29 55
125 51 163 -5 57 -31 136 -50 151 -15 13 -16 12 -9 -6z"/>
<path d="M408 340 c-21 -44 -30 -70 -22 -70 7 0 14 10 16 23 2 18 9 22 38 22
30 0 35 -3 34 -22 0 -17 5 -23 21 -23 22 0 21 2 -12 68 -19 37 -36 68 -37 70
-2 1 -18 -29 -38 -68z m46 14 c9 -23 8 -24 -14 -24 -11 0 -20 2 -20 4 0 12 13
36 20 36 4 0 11 -7 14 -16z"/>
<path d="M535 340 c0 -63 2 -70 20 -70 15 0 16 3 7 12 -7 7 -12 32 -12 57 l1
46 32 -39 c18 -22 39 -49 49 -60 15 -20 16 -18 20 52 3 67 2 72 -17 71 -11 0
-14 -3 -7 -6 13 -5 17 -83 4 -83 -5 0 -23 20 -42 45 -19 25 -39 45 -44 45 -7
0 -11 -27 -11 -70z"/>
<path d="M1420 350 c0 -27 140 -64 154 -41 5 7 -8 11 -41 12 -26 1 -51 1 -55
0 -5 0 -8 3 -8 7 0 5 -11 14 -25 20 -15 7 -25 8 -25 2z"/>
<path d="M702 273 c3 -37 4 -38 46 -41 25 -2 42 1 42 7 0 6 -13 11 -30 11 -27
0 -30 3 -30 30 0 21 -5 30 -16 30 -12 0 -14 -9 -12 -37z"/>
<path d="M1130 280 c0 -28 -3 -30 -35 -30 -19 0 -35 -5 -35 -11 0 -6 17 -9 43
-7 41 3 42 4 45 41 2 21 -1 37 -7 37 -6 0 -11 -13 -11 -30z"/>
<path d="M1978 209 c-5 -87 -17 -99 -100 -99 -64 0 -80 -17 -20 -22 56 -5 114
8 129 28 15 20 18 164 4 164 -5 0 -11 -32 -13 -71z"/>
<path d="M1458 246 c-21 -15 -71 -123 -65 -140 2 -6 16 16 31 49 15 32 34 67
43 77 20 22 14 31 -9 14z"/>
<path d="M1520 188 c-21 -34 -35 -76 -29 -83 2 -2 19 23 36 56 34 62 28 83 -7
27z"/>
<path d="M805 186 c-77 -24 -85 -32 -85 -84 0 -26 4 -53 8 -60 7 -9 54 -12
203 -10 l194 3 3 56 c3 64 -1 69 -72 93 -59 19 -193 20 -251 2z m258 -31 c48
-17 48 -17 45 -59 l-3 -41 -177 -3 -178 -2 0 44 c0 43 1 45 43 60 23 8 51 17
62 20 37 9 159 -3 208 -19z"/>
</g>
</svg>
